<?xml version="1.0" encoding="utf-8"?>
<!-- Generator: Adobe Illustrator 23.0.4, SVG Export Plug-In . SVG Version: 6.00 Build 0)  -->
<svg version="1.1" id="レイヤー_1" xmlns="http://www.w3.org/2000/svg" xmlns:xlink="http://www.w3.org/1999/xlink" x="0px"
	 y="0px" viewBox="0 0 200 172" style="enable-background:new 0 0 200 172;" xml:space="preserve">
<style type="text/css">
	.st0{fill:#000;}
</style>
<g>
	<path class="st0" d="M86.8,31.7c0.4,0,0.7-0.1,1.1-0.1l-2.8-21.2l-1.5,0.2l2.8,21.2C86.5,31.8,86.7,31.8,86.8,31.7z"/>
	<path class="st0" d="M75.9,34.5l-8.1-19.6l-1.4,0.6L74.5,35C74.9,34.8,75.4,34.7,75.9,34.5z"/>
	<path class="st0" d="M64.8,40.3L52.1,23.7l-1.2,0.9l12.7,16.5C64,40.8,64.4,40.5,64.8,40.3z"/>
	<path class="st0" d="M55.5,48.7L39.3,36.2l-0.9,1.2l16.2,12.4C54.9,49.4,55.2,49,55.5,48.7z"/>
	<path class="st0" d="M48.5,59.3l-18.3-7.6L29.6,53l18.3,7.6C48.1,60.1,48.3,59.7,48.5,59.3z"/>
	<path class="st0" d="M44.4,71.4l-19-2.5l-0.2,1.5l18.9,2.5C44.2,72.4,44.3,71.9,44.4,71.4z"/>
	<path class="st0" d="M142.3,71.4c0.1,0.5,0.2,1,0.3,1.5l19-2.5l-0.2-1.5L142.3,71.4z"/>
	<path class="st0" d="M25.3,88.3l18.3-2.4c0-0.5-0.1-1-0.1-1.5l-18.4,2.4L25.3,88.3z"/>
	<path class="st0" d="M138.1,59.3c0.2,0.4,0.4,0.9,0.6,1.3l18.3-7.6l-0.6-1.4L138.1,59.3z"/>
	<rect x="133.3" y="41" transform="matrix(0.7934 -0.6087 0.6087 0.7934 3.8065 94.7001)" class="st0" width="16.2" height="1.5"/>
	<path class="st0" d="M123,41.1l12.7-16.5l-1.2-0.9l-12.7,16.6C122.2,40.6,122.6,40.8,123,41.1z"/>
	<path class="st0" d="M112.2,35l8.1-19.6l-1.4-0.6l-8.1,19.6C111.3,34.7,111.7,34.8,112.2,35z"/>
	<path class="st0" d="M103,10.6l-1.5-0.2l-2.8,21.2c0.5,0.1,1,0.1,1.5,0.2L103,10.6z"/>
	<path class="st0" d="M94.1,0h-1.5v1.9c0.5,0,1,0,1.5,0V0z"/>
	<path class="st0" d="M80.3,33c0.5-0.1,1-0.3,1.4-0.4L75.2,8.1c-0.5,0.1-1,0.3-1.4,0.4L80.3,33z"/>
	<path class="st0" d="M74.2,4.3l-0.5-1.8l-1.4,0.4l0.5,1.8C73.2,4.5,73.7,4.4,74.2,4.3z"/>
	<path class="st0" d="M70.2,37L57.6,15.2c-0.4,0.2-0.9,0.5-1.3,0.7l12.6,21.8C69.3,37.5,69.7,37.2,70.2,37z"/>
	<path class="st0" d="M55.6,11.8l-0.9-1.6l-1.3,0.7l0.9,1.6C54.7,12.2,55.1,12,55.6,11.8z"/>
	<path class="st0" d="M59.9,44.1L42.4,26.6c-0.4,0.3-0.7,0.7-1.1,1.1l17.5,17.5C59.2,44.8,59.5,44.5,59.9,44.1z"/>
	<path class="st0" d="M39.6,23.8l-1.3-1.3l-1.1,1.1l1.3,1.3C38.9,24.5,39.2,24.2,39.6,23.8z"/>
	<path class="st0" d="M51.7,53.7l-21-12.1c-0.3,0.4-0.5,0.9-0.7,1.3L50.9,55C51.1,54.5,51.4,54.1,51.7,53.7z"/>
	<path class="st0" d="M27.2,39.6l-1.6-0.9L24.9,40l1.6,0.9C26.7,40.5,27,40,27.2,39.6z"/>
	<path class="st0" d="M46,65.2l-22.8-6.1c-0.1,0.5-0.3,1-0.4,1.4l22.8,6.1C45.7,66.1,45.9,65.7,46,65.2z"/>
	<path class="st0" d="M19.3,58l-1.8-0.5L17.2,59l1.8,0.5C19.1,59,19.2,58.5,19.3,58z"/>
	<path class="st0" d="M16.6,77.9h-1.9v1.5h1.9C16.6,78.9,16.6,78.4,16.6,77.9z"/>
	<path class="st0" d="M172,77.9h-1.9c0,0.5,0,1,0,1.5h1.9V77.9z"/>
	<path class="st0" d="M43.4,79.4c0-0.5,0-1,0.1-1.5H20.5c0,0.5,0,1,0,1.5H43.4z"/>
	<path class="st0" d="M166.1,79.4c0-0.5,0-1,0-1.5h-23c0,0.5,0.1,1,0.1,1.5H166.1z"/>
	<path class="st0" d="M169.5,59l-0.4-1.4l-1.8,0.5c0.1,0.5,0.3,1,0.4,1.4L169.5,59z"/>
	<path class="st0" d="M141.1,66.6l22.8-6.1c-0.1-0.5-0.3-1-0.4-1.4l-22.8,6.1C140.8,65.7,140.9,66.1,141.1,66.6z"/>
	<path class="st0" d="M19.4,99.2c-0.1-0.5-0.3-1-0.4-1.4l-1.8,0.5l0.4,1.4L19.4,99.2z"/>
	<path class="st0" d="M23.2,98.2l21.4-5.7c-0.1-0.5-0.2-1-0.3-1.5l-21.5,5.8C23,97.2,23.1,97.7,23.2,98.2z"/>
	<path class="st0" d="M161.8,40l-0.7-1.3l-1.6,0.9c0.3,0.4,0.5,0.9,0.7,1.3L161.8,40z"/>
	<path class="st0" d="M135.8,55l21-12.1c-0.2-0.4-0.5-0.9-0.7-1.3l-21,12.1C135.3,54.1,135.5,54.6,135.8,55z"/>
	<path class="st0" d="M132.1,40.9l13.2-13.2c-0.3-0.4-0.7-0.7-1.1-1.1L131,39.9L132.1,40.9z"/>
	<path class="st0" d="M149.5,23.6l-1.1-1.1l-1.3,1.3c0.4,0.3,0.7,0.7,1.1,1.1L149.5,23.6z"/>
	<path class="st0" d="M117.8,37.7L130.4,16c-0.4-0.3-0.9-0.5-1.3-0.7L116.5,37C116.9,37.3,117.4,37.5,117.8,37.7z"/>
	<path class="st0" d="M133.3,10.9l-1.3-0.7l-0.9,1.6c0.4,0.2,0.9,0.5,1.3,0.7L133.3,10.9z"/>
	<path class="st0" d="M114.4,2.9L113,2.5l-0.5,1.8c0.5,0.1,1,0.3,1.4,0.4L114.4,2.9z"/>
	<path class="st0" d="M112.9,8.5c-0.5-0.1-1-0.3-1.4-0.4l-6.6,24.6c0.5,0.1,1,0.2,1.4,0.4L112.9,8.5z"/>
	<path class="st0" d="M93.3,47.6c-1.3,0-2.4,1.1-2.4,2.4c0,1.3,1.1,2.4,2.4,2.4c1.3,0,2.4-1.1,2.4-2.4
		C95.7,48.7,94.6,47.6,93.3,47.6z M93.3,51.1c-0.6,0-1.1-0.5-1.1-1.1c0-0.6,0.5-1.1,1.1-1.1c0.6,0,1.1,0.5,1.1,1.1
		C94.4,50.6,93.9,51.1,93.3,51.1z"/>
	<path class="st0" d="M70.8,64h3.5c0.4,0,0.6-0.3,0.6-0.6v-3.5c0-1.3-1.1-2.4-2.4-2.4c-1.3,0-2.4,1.1-2.4,2.4v3.5
		C70.2,63.7,70.5,64,70.8,64z M71.5,59.9c0-0.6,0.5-1.1,1.1-1.1c0.6,0,1.1,0.5,1.1,1.1v2.8h-2.2V59.9z"/>
	<path class="st0" d="M91.6,63.6h3.5c0.4,0,0.6-0.3,0.6-0.6v-3.4c0-1.3-1.1-2.4-2.4-2.4c-1.3,0-2.4,1.1-2.4,2.4v3.4
		C90.9,63.3,91.2,63.6,91.6,63.6z M92.2,59.5c0-0.6,0.5-1.1,1.1-1.1c0.6,0,1.1,0.5,1.1,1.1v2.7h-2.2V59.5z"/>
	<path class="st0" d="M111.6,66.3h3.5c0.4,0,0.6-0.3,0.6-0.6V61c0-1.3-1.1-2.4-2.4-2.4S111,59.7,111,61v4.6
		C111,66,111.3,66.3,111.6,66.3z M112.3,61c0-0.6,0.5-1.1,1.1-1.1s1.1,0.5,1.1,1.1v4h-2.2V61z"/>
	<path class="st0" d="M74.3,74.3h-3.5c-0.4,0-0.6,0.3-0.6,0.6v10.7c0,0.4,0.3,0.6,0.6,0.6h3.5c0.4,0,0.6-0.3,0.6-0.6V75
		C75,74.6,74.7,74.3,74.3,74.3z M73.7,85h-2.2v-9.4h2.2V85z"/>
	<path class="st0" d="M95.1,74.3h-3.5c-0.4,0-0.6,0.3-0.6,0.6v10.7c0,0.4,0.3,0.6,0.6,0.6h3.5c0.4,0,0.6-0.3,0.6-0.6V75
		C95.7,74.6,95.4,74.3,95.1,74.3z M94.4,85h-2.2v-9.4h2.2V85z"/>
	<path class="st0" d="M115.3,74.3h-3.5c-0.4,0-0.6,0.3-0.6,0.6v10.7c0,0.4,0.3,0.6,0.6,0.6h3.5c0.4,0,0.6-0.3,0.6-0.6V75
		C115.9,74.6,115.6,74.3,115.3,74.3z M114.6,85h-2.2v-9.4h2.2V85z"/>
	<path class="st0" d="M130.1,74.3h-3.5c-0.4,0-0.6,0.3-0.6,0.6v10.7c0,0.4,0.3,0.6,0.6,0.6h3.5c0.4,0,0.6-0.3,0.6-0.6V75
		C130.7,74.6,130.4,74.3,130.1,74.3z M129.4,85h-2.2v-9.4h2.2V85z"/>
	<path class="st0" d="M81.2,53.9v1.2l-21.8,0h0c-0.2,0-0.3,0.1-0.5,0.2s-0.2,0.3-0.2,0.5v1.7l-2.2,4.2H53c-0.4,0-0.6,0.3-0.6,0.6
		v3.4V68v27.6l1.3-0.1v-1.2h8.9v0.2l1.3-0.1v-0.1h0.7L76.7,93H63.9v-5h17.3v4.5l1.3-0.1V88h2.3v4.1l1.3-0.1V68.7h1.3v23.2l1.3-0.1
		V88h9.4v2.7l1.3-0.1V68.7h1.3v21.8l1.3-0.1V88h2.2v2.1l1.3-0.1V88h15.9v0.2l1.3-0.1V88h0.9l10.8-1.2v0.1l1.3-0.1V68v-2.4
		c0-0.1,0-0.1,0-0.2l-3.9-13.8v-3.5c0.3-0.1,0.5-0.3,0.5-0.6v-1.3c0-0.1,0-0.2-0.1-0.3l-2-3.8c-0.1-0.2-0.3-0.3-0.6-0.3H129v-5.4
		h-1.5v5.4h-0.3c-0.2,0-0.5,0.1-0.6,0.3l-2,3.8c0,0.1-0.1,0.2-0.1,0.3v1.3c0,0.4,0.3,0.6,0.6,0.6h0.1v3.5l-3.4,11.8l-1.6-4.6v-3.1
		c0-0.4-0.3-0.6-0.6-0.6H107c-0.4,0-0.6,0.3-0.6,0.6v3.1l-2.1,5h0v-6.9h0.5h0.1c0.4,0,0.6-0.3,0.6-0.6v-2.4c0-0.4-0.3-0.6-0.6-0.6
		h-0.1h-0.5c-0.3-5.3-3.5-9.7-7.9-11v-3.6h0c0.4,0,0.6-0.3,0.6-0.6c0-2.3-1.2-4-2.9-4.4v-2.3c0,0,0,0,0,0V5.8c-0.2,0-0.4,0-0.6,0
		c-0.3,0-0.6,0-0.9,0v9.7h0v18c-1.7,0.4-2.9,2.1-2.9,4.4c0,0.4,0.3,0.6,0.6,0.6h0.3v3.5c-4.5,1.3-7.9,5.8-8.2,11.1h-0.5
		C81.5,53.3,81.2,53.6,81.2,53.9z M57,62.9c0.2,0,0.5-0.1,0.6-0.3l2.5-4.7c0-0.1,0.1-0.2,0.1-0.3v-1.2l21.2,0c0,0.3,0.3,0.5,0.6,0.5
		h0.5v6.9h-0.5c-0.4,0-0.6,0.3-0.6,0.6V65H53.7v-2.1H57z M93.3,43.2c3.6,1.9,5,6.4,4.9,10.1h-9.8C88.3,49.6,89.7,45.1,93.3,43.2z
		 M103.6,54.6h0.5v1.1h-0.5H82.5v-1.1H83H103.6z M53.7,73.8h8.9v12.9h-8.9V73.8z M53.7,72.5v-3.8h8.9v3.8H53.7z M53.7,66.3h27.6v1.1
		H53.7V66.3z M63.9,68.7h17.3v3.8H63.9V68.7z M62.6,93h-8.9v-5h8.9V93z M63.9,86.7V73.8h17.3v12.9H63.9z M82.5,86.7V73.8h2.3v12.9
		H82.5z M84.8,72.5h-2.3v-3.8h2.3V72.5z M88.7,86.7V73.8h9.4v12.9H88.7z M98.1,72.5h-9.4v-3.8h9.4V72.5z M98.7,67.4H88.1h-2.6h-2.9
		v-1.7v-0.5h21.1h0.5v2.3h-2.8H98.7z M122.6,68.7h11.7v3.8h-11.7V68.7z M134.3,67.4h-11.7v-1.1h11.7V67.4z M121.3,72.5h-15.9v-3.8
		h15.9V72.5z M104.1,68.7v3.8h-2.2v-3.8H104.1z M101.9,86.7V73.8h2.2v12.9H101.9z M105.4,86.7V73.8h15.9v12.9H105.4z M122.6,86.7
		V73.8h11.7v12.9H122.6z M127.6,43.1h1.5l1.7,3.3v0.3H126c0,0-0.1,0-0.1,0v-0.3L127.6,43.1z M130.4,48.1v3h-3.8v-3H130.4z
		 M126.5,52.4h4.1l3.6,12.6h-11.3L126.5,52.4z M107.6,59.2c0-0.1,0-0.2,0-0.2v-2.6h11.4v2.6c0,0.1,0,0.1,0,0.2l2.2,6.6v1.6h-15.9
		v-2.8L107.6,59.2z M103,63.8H83.7v-6.9H103V63.8z M103,53.3h-3.5c0.1-3.4-0.9-7.3-3.5-9.8C99.8,44.7,102.7,48.6,103,53.3z
		 M93.3,34.8c1.3,0,2.1,1,2.3,2.5H91C91.2,35.9,92.1,34.8,93.3,34.8z M91.9,38.7H95v3.3c-0.6-0.1-1.1-0.2-1.7-0.2
		c-0.5,0-1,0.1-1.5,0.1V38.7z M90.6,43.5c-2.6,2.5-3.6,6.3-3.5,9.8h-3.5C83.9,48.8,86.9,44.8,90.6,43.5z"/>
	<polygon class="st0" points="49.3,147.4 47.8,147.5 48,146 47.2,146 46.6,150 47.4,149.9 47.7,148.3 49.2,148.1 48.9,149.7 
		49.8,149.6 50.4,145.7 49.6,145.8 	"/>
	<path class="st0" d="M54.3,145.3l-2.3,4.1l0.9-0.1l0.5-0.9l1.6-0.2l0.2,0.8l0.9-0.1l-1-3.8L54.3,145.3z M53.9,147.6l0.7-1.3
		l0.3,1.2L53.9,147.6z"/>
	<path class="st0" d="M60.5,145.4c0.5,0,0.7,0.1,1,0.4l0.6-0.6c-0.4-0.5-0.9-0.7-1.6-0.7c-0.6,0.1-1.2,0.4-1.6,0.8
		c-0.4,0.5-0.6,1.1-0.5,1.7c0.1,1,0.9,1.6,2,1.5c0.6-0.1,1.1-0.4,1.4-0.7l-0.6-0.5c-0.3,0.3-0.5,0.4-0.9,0.5c-0.5,0.1-1-0.3-1-0.8
		c0-0.4,0.1-0.8,0.3-1.1C59.9,145.6,60.2,145.5,60.5,145.4z"/>
	<polygon class="st0" points="67,144.1 65.3,145.9 65.6,144.2 64.8,144.3 64.1,148.2 65,148.1 65.1,147 65.8,146.3 66.7,147.9 
		67.6,147.8 66.5,145.7 68.2,143.9 	"/>
	<polygon class="st0" points="69.9,147.6 72.8,147.3 72.9,146.6 70.9,146.8 71,145.9 72.8,145.8 72.9,145 71.2,145.2 71.3,144.4 
		73.3,144.2 73.4,143.4 70.6,143.7 	"/>
	<path class="st0" d="M78.9,143.3c-0.3-0.2-0.7-0.3-1.2-0.3l-1.4,0.1l-0.6,3.9l0.8-0.1l0.2-1.2l0.6-0.1l0.7,1.2l1-0.1l-0.8-1.2
		c0.5-0.2,0.7-0.4,0.8-0.5c0.2-0.2,0.3-0.6,0.3-0.9C79.2,143.7,79.1,143.4,78.9,143.3z M78.3,144.5c-0.1,0.2-0.4,0.3-0.7,0.3
		l-0.7,0.1l0.2-1.1l0.7-0.1c0.3,0,0.5,0,0.6,0.1c0.1,0.1,0.1,0.2,0.1,0.3C78.4,144.3,78.4,144.4,78.3,144.5z"/>
	<path class="st0" d="M86.2,142.8c0.4,0,0.6,0.1,1,0.3l0.5-0.6c-0.4-0.3-0.8-0.5-1.5-0.4c-0.5,0-0.9,0.2-1.1,0.6
		c-0.2,0.2-0.3,0.5-0.3,0.9c0.1,0.6,0.5,0.8,1,0.9c0.5,0.2,0.7,0.3,0.7,0.4c0,0.2-0.2,0.4-0.5,0.5c-0.4,0-0.8-0.1-1.1-0.4l-0.6,0.6
		c0.4,0.4,1,0.6,1.7,0.5c0.5,0,0.9-0.2,1.1-0.6c0.2-0.2,0.3-0.5,0.3-0.9c-0.1-0.6-0.5-0.8-1-0.9c-0.5-0.2-0.7-0.2-0.7-0.4
		C85.6,143.1,85.8,142.9,86.2,142.8z"/>
	<path class="st0" d="M92.7,141.9c-0.3-0.2-0.7-0.3-1.2-0.3l-1.2,0.1l-0.6,3.9l0.8-0.1l0.2-1.2l0.7-0.1c0.6-0.1,1.1-0.3,1.4-0.7
		c0.2-0.3,0.3-0.6,0.3-1C93.1,142.3,93,142,92.7,141.9z M92.1,143.2c-0.1,0.2-0.4,0.3-0.7,0.3l-0.6,0.1l0.2-1.2l0.5-0.1
		c0.2,0,0.4,0,0.5,0.1c0.1,0.1,0.1,0.2,0.2,0.3C92.3,143,92.2,143.1,92.1,143.2z"/>
	<path class="st0" d="M96.8,141l-2.3,4.1l0.9-0.1l0.5-0.9l1.6-0.2l0.2,0.8l0.9-0.1l-1-3.8L96.8,141z M96.3,143.4L97,142l0.3,1.2
		L96.3,143.4z"/>
	<path class="st0" d="M102.9,141.2c0.5,0,0.7,0.1,1,0.4l0.6-0.6c-0.4-0.5-0.9-0.7-1.6-0.7c-0.6,0.1-1.2,0.4-1.6,0.8
		c-0.4,0.5-0.6,1.1-0.5,1.7c0.1,1,0.9,1.6,2,1.5c0.6-0.1,1.1-0.4,1.4-0.7l-0.6-0.5c-0.3,0.3-0.5,0.4-0.9,0.5c-0.5,0.1-1-0.3-1-0.8
		c0-0.4,0.1-0.8,0.3-1.1C102.2,141.4,102.5,141.2,102.9,141.2z"/>
	<polygon class="st0" points="106.3,144 109.1,143.7 109.3,142.9 107.2,143.1 107.4,142.3 109.1,142.1 109.2,141.4 107.5,141.5 
		107.6,140.7 109.6,140.5 109.7,139.8 106.9,140.1 	"/>
	<polygon class="st0" points="114.8,143.1 115.6,143 115.9,141.5 117.7,141.3 117.8,140.6 116,140.7 116.1,139.9 118.2,139.7 
		118.3,138.9 115.4,139.2 	"/>
	<path class="st0" d="M122.6,140.7c-0.1,0.3-0.2,0.6-0.3,0.7c-0.1,0.2-0.3,0.3-0.6,0.3c-0.4,0-0.7-0.2-0.7-0.6c0-0.2,0-0.3,0-0.4
		l0.3-2.1l-0.8,0.1l-0.3,2c0,0.2,0,0.4,0,0.6c0.1,0.8,0.7,1.2,1.6,1.1c0.6-0.1,1-0.3,1.2-0.6c0.2-0.3,0.4-0.7,0.5-1.2l0.4-2.3
		l-0.8,0.1L122.6,140.7z"/>
	<polygon class="st0" points="128.4,137.9 126.7,139.8 127,138 126.1,138.1 125.5,142 126.3,142 126.5,140.9 127.2,140.1 128,141.8 
		128.9,141.7 127.8,139.6 129.5,137.8 	"/>
	<path class="st0" d="M133.6,139.6c0,0.3-0.2,0.6-0.3,0.7c-0.1,0.2-0.3,0.3-0.6,0.3c-0.4,0-0.7-0.2-0.7-0.6c0-0.2,0-0.3,0-0.4
		l0.3-2.1l-0.8,0.1l-0.3,2c0,0.2-0.1,0.4,0,0.6c0.1,0.8,0.7,1.2,1.6,1.1c0.6-0.1,1-0.3,1.2-0.6c0.2-0.3,0.4-0.7,0.5-1.2l0.4-2.3
		l-0.8,0.1L133.6,139.6z"/>
	<path class="st0" d="M138.6,136.8c-0.7,0.1-1.2,0.4-1.6,0.8c-0.4,0.5-0.6,1.1-0.5,1.7c0.1,1,0.9,1.6,1.9,1.5
		c0.7-0.1,1.2-0.4,1.6-0.8c0.4-0.5,0.6-1.1,0.5-1.7C140.4,137.4,139.7,136.7,138.6,136.8z M139.3,139.6c-0.2,0.2-0.5,0.4-0.8,0.5
		c-0.6,0.1-1-0.3-1.1-0.9c0-0.4,0.1-0.8,0.3-1.1c0.2-0.2,0.5-0.4,0.8-0.5c0.6-0.1,1,0.3,1.1,0.9
		C139.7,138.8,139.6,139.3,139.3,139.6z"/>
	<polygon class="st0" points="145.4,136.2 143.7,138.1 144,136.3 143.1,136.4 142.5,140.3 143.3,140.2 143.5,139.2 144.2,138.4 
		145,140.1 145.9,140 144.8,137.9 146.5,136.1 	"/>
	<path class="st0" d="M150,135.7l-2.3,4.1l0.9-0.1l0.5-0.9l1.6-0.2l0.2,0.8l0.9-0.1l-1-3.8L150,135.7z M149.5,138l0.7-1.3l0.3,1.2
		L149.5,138z"/>
	<path class="st0" d="M70.5,105.4c-0.6-0.3-1.5-0.1-2.1,0.6c0,0-2.3,2.4-2.6,3.2c-0.2,0.6,0,0.9,0.1,1.1c0.2,0.3,0.5,0.4,0.9,0.4
		c0.1,0,0.1,0,0.2,0h0c0.7-0.1,1.4-0.6,1.8-1.3c0.1-0.2,0.9-1.1,1.8-2c0.4-0.4,0.6-0.9,0.5-1.4C71,105.8,70.8,105.5,70.5,105.4z"/>
	<path class="st0" d="M183.1,107.2c0.4,1.2,1.2,1.9,2.5,1.9c0.1,0,0.3,0,0.4,0l0.1,0c3.5-0.3,9.1-5.2,13.3-9.3
		c0.4-0.4,0.6-0.9,0.6-1.3c0-0.3-0.2-0.6-0.4-0.7c-0.6-0.5-1.6-0.1-2.1,0.4c-5.8,5.7-9.4,7.9-10.8,8c-0.1,0-0.3,0-0.5-0.4
		c-0.1-0.4-0.1-0.8-0.1-1.3c1.7-0.9,3.2-2.4,4.2-4.2c0.4-0.7,0.9-2,0.6-2.9c-0.1-0.4-0.4-0.7-0.8-0.9c-0.8-0.3-1.8,0-2.8,0.8
		c-0.2,0.1-0.4,0.3-0.6,0.5c-0.1,0.1-0.3,0.2-0.4,0.3c-4.2,4.1-7.4,6.9-10.3,8.3c-2.2,1.1-4.4,1.4-7,1c5-5.1,15.4-18.2,16-23
		c0.1-0.8,0-1.5-0.4-1.9c-0.4-0.4-0.9-0.7-1.6-0.7c-1.7-0.1-3.7,1.2-5.8,3.8c-2.9,3.5-6.5,9.7-10.1,17.1c0,0,0,0-0.1,0.1l-0.5,0.6
		c-0.3,0.3-0.6,0.7-1,1c-0.8,0.9-1.7,1.8-2.5,2.7c-0.8,0.8-1.6,1.6-2.5,2.4c-2,1.7-2.9,2-3.4,1.9c-0.1,0-0.2-0.1-0.3-0.2
		c-0.3-0.6-0.2-2.8,3.9-10.8c0.2-0.4,0.2-0.8,0-1.1c-0.2-0.3-0.5-0.5-0.9-0.5c-0.7,0-1.5,0.5-1.9,1.1l-0.3,0.5
		c-0.1,0.2-0.2,0.3-0.3,0.5c0,0,0,0,0-0.1c-0.1-0.3-0.5-0.7-1.2-0.7c-1.3-0.2-2.8,0.9-4.7,3.5l-1.2,1.4c-4.2,5.1-7.9,9.5-10.8,12.6
		c-3.6,3.7-5.1,4.4-5.8,4.3c-0.2,0-0.3-0.1-0.4-0.2c-0.2-0.2-0.6-1.3,0.3-4.6c1.1-3.8,3.4-8.5,6.4-13.4c3.1-5,6.6-9.6,10-13.1
		c3.6-3.7,5.7-4.6,6.3-4.5c0.2,0,0.2,0.1,0.2,0.2c0,0.1,0.1,0.5-0.5,1.5c-0.3,0.4-0.3,0.9-0.1,1.2c0.2,0.3,0.5,0.5,0.8,0.5
		c0.7,0.1,1.5-0.4,2-1.1c1.1-1.8,1.1-3,1-3.7c-0.3-0.9-1-1.5-2.1-1.6c-2.9-0.3-6.8,3-9.6,5.9c-3.6,3.6-7.4,8.5-10.6,13.9
		c-3.3,5.3-5.7,10.3-6.8,14.3c-0.8,3.1-0.9,5.2,0,6.4c0.4,0.6,1.1,1,1.9,1.1c0.1,0,0.2,0,0.3,0c0.2,0,0.4,0,0.5,0
		c2.1-0.2,4.6-2,8.2-5.7c1.6-1.7,3.4-3.7,5.3-5.9c0,0.5,0,0.9,0.2,1.2c0.2,0.4,0.5,0.8,1.3,0.9c0.1,0,0.2,0,0.3,0c0.1,0,0.2,0,0.3,0
		c0.5-0.1,1.1-0.3,1.6-0.6c0.9-0.5,1.9-1.4,3-2.8c0,0.6,0.2,1.1,0.5,1.5c0.4,0.5,0.9,0.8,1.7,0.9c1.6,0.3,3.6-0.6,6.2-2.8
		c0.7-0.6,1.4-1.2,2-1.9c-0.8,1.9-1.6,3.9-2.4,5.8c-1,2.5-2.5,6.4-3.8,10.4L48.2,136.3c1.5-3.4,2.8-6.6,3.7-8.8
		c0.2-0.6,0.5-1.4,0.8-2.1c2.9-2.8,5.7-5.2,8.2-7.2c-0.5,1.2-0.9,2.2-1.1,3.1c-0.4,1.4-0.4,2.4,0.1,3c0.3,0.4,0.8,0.6,1.4,0.6
		c0,0,0.1,0,0.1,0l0.2,0c1.9-0.2,6.4-4,9.8-7.1c-0.4,1-0.8,1.9-1.1,2.6c-0.2,0.4-0.4,0.8-0.4,1.1c-0.1,0.4,0,0.7,0.2,0.9
		c0.1,0.2,0.4,0.3,0.8,0.3l0,0l0.2,0c0.7-0.1,1.3-0.6,1.8-1.4c0.1-0.2,0.3-0.4,0.5-0.7l0.2-0.3c0.6-1,2.2-3.5,3.8-5.6
		c1.1-1.4,1.7-2.1,2.1-2.5c-0.1,0.5-0.3,1.1-0.5,1.7l-0.2,0.6c-0.2,0.6-0.4,1.2-0.5,1.8c-0.1,0.6-0.3,1.2-0.3,1.7
		c0,0.8,0.1,1.4,0.5,1.8c0.3,0.4,0.8,0.5,1.4,0.5c1.1,0,2.3-0.5,4-1.8c0.6-0.4,1.3-1,2.1-1.7c0.7-0.6,1.5-1.2,2.2-1.9
		c0.3-0.3,0.6-0.5,0.9-0.8c-0.4,1.3-0.5,2.7-0.2,3.8c0.4,1.2,1.2,1.9,2.5,1.9c0.1,0,0.3,0,0.4,0l0.1,0c2.4-0.2,5.9-2.7,9.2-5.5
		c-0.1,0.8-0.1,1.6,0.1,2.3c0.4,1.2,1.2,1.9,2.5,1.9c0.1,0,0.3,0,0.5,0l0.1,0c2.4-0.2,6-2.8,9.3-5.7c-0.6,1.3-1.4,3-2.6,5.2l0,0.1
		c-0.2,0.4-0.2,0.9,0,1.2c0.2,0.3,0.5,0.4,0.9,0.4c0.1,0,0.1,0,0.2,0c0.6-0.1,1.4-0.6,1.7-1.1c4-7.1,8.5-12.3,9.8-12.7
		c-0.1,0.3-0.3,0.9-0.9,1.7l0,0c-0.2,0.4-0.3,0.9-0.1,1.2c0.2,0.3,0.5,0.5,0.8,0.5c0.7,0.1,1.5-0.4,2-1.1c1.4-2.3,1.8-3.9,1-4.8
		c-0.8-1-2.4-0.5-2.9-0.3c-1.7,0.5-3.6,2.4-5.1,4.2c0-0.4-0.1-0.8-0.2-1.1c-0.3-0.5-0.8-0.8-1.6-0.8c-0.7,0-1.5,0.6-1.8,1.3
		c-0.2,0.4-0.2,0.9,0,1.2c0.1,0.1,0.2,0.2,0.3,0.3c-5.4,5.2-8.8,7.3-10.2,7.4c-0.1,0-0.3,0-0.5-0.4c-0.1-0.4-0.1-0.8-0.1-1.3
		c1.7-0.9,3.2-2.4,4.2-4.2c0.4-0.7,0.9-2,0.6-2.9c-0.1-0.4-0.4-0.7-0.8-0.9c-0.8-0.3-1.8,0-2.8,0.8c-0.7,0.6-1.5,1.4-2.2,2.5
		c-5.8,5.6-9.3,7.8-10.7,7.9c-0.1,0-0.3,0-0.5-0.4c-0.1-0.4-0.1-0.8-0.1-1.3c1.7-0.9,3.2-2.4,4.2-4.2c0.4-0.7,0.9-2,0.6-2.9
		c-0.1-0.4-0.4-0.7-0.8-0.9c-0.8-0.3-1.8,0-2.8,0.8c-0.2,0.1-0.4,0.3-0.5,0.5c-0.1,0-0.1,0.1-0.2,0.1c-1.8,1.1-3.8,2.9-5.9,4.7
		c-0.6,0.5-1.2,1.1-1.9,1.6c-0.6,0.5-1.2,1-1.7,1.4c-0.9,0.7-1.4,1-1.7,1.1c0-0.1,0-0.2,0-0.4c0.1-0.7,0.4-1.6,0.7-2.5
		c0.6-2,1.1-3.9,0.3-4.9c-0.4-0.4-0.9-0.6-1.6-0.6c-1.3,0.1-2.7,1.1-4.4,3.1c0.1-0.6,0.1-1.1,0.1-1.6c0-0.3-0.2-0.6-0.4-0.8
		c-0.3-0.2-0.8-0.2-1.3-0.1c-0.8,0.3-1.4,1.1-1.4,1.8c0,0.3,0,0.8-0.1,1.3c-0.8,0.8-2.8,2.7-5,4.6c-3.1,2.7-4.7,3.8-5.4,4.3
		c0-0.2,0.1-0.6,0.3-1.1c0.5-1.5,1.4-3.5,2.2-5.2l0.8-1.6c0.2-0.4,0.1-0.9-0.1-1.2c-0.2-0.3-0.6-0.4-1-0.4c-0.7,0-1.5,0.6-1.9,1.3
		c0,0,0,0.1,0,0.1c-2.4,1.6-5.2,3.7-8,6.3c2-5.2,2.6-7.2,1.9-8c-0.3-0.3-0.7-0.4-1.3-0.4c-0.2,0-0.3,0.1-0.5,0.2
		c0.1-0.6,0-1.1-0.3-1.4c-0.3-0.4-0.9-0.6-1.7-0.5c-1.2,0.1-2.5,1-4,2.7c-0.4,0.4-0.7,0.8-1.1,1.3c-1.7,1.1-3.7,2.8-5.7,4.6
		c-0.6,0.5-1.2,1.1-1.9,1.6c-0.6,0.5-1.2,1-1.7,1.4c-0.9,0.7-1.4,1-1.7,1.1c0-0.1,0-0.2,0-0.4c0.1-0.7,0.4-1.6,0.7-2.5
		c0.6-2,1.1-3.9,0.3-4.9c-0.4-0.4-0.9-0.6-1.6-0.6c-1.3,0.1-2.7,1.1-4.4,3.1c0.1-0.6,0.1-1.1,0.1-1.6c0-0.3-0.2-0.6-0.4-0.8
		c-0.3-0.2-0.8-0.2-1.3-0.1c-0.8,0.3-1.4,1.1-1.4,1.8c0,0.3,0,0.7-0.1,1.1c-3.1,3.1-8.3,8.1-10.6,10.2c-1,0.9-1,0.9-1,0.9
		c-7.5,7.3-13.2,9.9-13.9,9.4c0,0-0.1-0.1-0.1-0.2C3,136.8,5.7,132,12,125.8c1.4-1.4,2.9-2.6,4.3-3.7c1.2-0.9,2.4-1.8,3.5-2.7l1.3-1
		c0.6-0.5,1.3-0.9,1.9-1.5c0.4-0.3,0.7-0.8,0.8-1.2c0-0.3,0-0.6-0.2-0.8c-0.5-0.5-1.4-0.4-2.1,0.1c-0.5,0.4-1.1,0.8-1.6,1.2
		l-0.1,0.1c-6.7,4.9-10.7,5.7-11.3,5c0,0-0.1-0.2,0.1-0.8c0.9-3,5.2-7,7.6-9.1c5.1-4.4,9.3-7.1,12.9-8.3c0.8-0.3,1.4-0.4,1.8-0.4
		c0.8,0,1,0.1,1.1,0.2c0,0,0.1,0.1,0.1,0.3c0,0.6-0.8,1.8-2,2.9c-0.5,0.5-1.1,0.9-1.6,1.1c0,0,0,0,0,0c-0.1-0.2-0.3-0.3-0.8-0.4
		c-0.7-0.1-1.5,0.4-2,1.1c-0.3,0.6-0.4,1.2-0.1,1.6c0.4,0.6,1.1,0.8,1.7,0.7c1.4-0.1,3-1,4.6-2.4c1.9-1.7,3.2-3.7,3.4-5.2
		c0.1-0.8-0.1-1.4-0.6-1.9c-0.6-0.6-1.7-0.9-3-0.8c-0.8,0.1-1.7,0.2-2.7,0.6c-4.2,1.3-9,4.4-14.6,9.2c-2.8,2.4-7.7,7.1-8.9,11
		c-0.4,1.2-0.2,2.2,0.3,2.8c0.8,1,2.3,1.2,4.3,0.7c-4.8,4.7-10.3,11.5-10,15c0.1,0.7,0.4,1.3,0.9,1.6c0.4,0.3,0.9,0.4,1.5,0.4
		c0.2,0,0.4,0,0.6,0h0c3.5-0.4,9.8-4.6,16.1-10.7c0,0,0.4-0.3,0.9-0.8c1.4-1.3,4.3-4.1,7-6.7c-0.4,1-0.8,1.8-1.1,2.5
		c-0.2,0.4-0.4,0.8-0.4,1.1c-0.1,0.4,0,0.7,0.2,0.9c0.2,0.2,0.5,0.3,0.9,0.3l0.2,0c0.7-0.1,1.3-0.6,1.8-1.4c0.1-0.2,0.3-0.4,0.4-0.7
		l0.2-0.4c0.6-1,2.2-3.5,3.8-5.6c1.1-1.4,1.7-2.1,2.1-2.5c-0.1,0.5-0.3,1.1-0.5,1.7l-0.2,0.6c-0.2,0.6-0.3,1.2-0.5,1.8
		c-0.1,0.6-0.3,1.2-0.3,1.7c0,0.8,0.1,1.4,0.5,1.8c0.3,0.4,0.8,0.5,1.4,0.5c1.1,0,2.3-0.5,4-1.8c0.6-0.4,1.3-1,2.1-1.7
		c0.7-0.6,1.5-1.2,2.2-1.9c0,0,0.1-0.1,0.1-0.1c-0.8,1.7-1.3,3.4-0.9,4.5c0.2,0.5,0.5,0.8,1,1c0.7,0.2,1.5,0.2,2.4-0.2
		c1.2-0.6,2.4-1.7,3.8-3.4c0.5-0.7,1.1-1.4,1.6-2.2c-0.1,0.2-0.2,0.5-0.3,0.7c-0.3,0.7-0.5,1.4-0.8,2.1c-0.1,0.3-0.3,0.7-0.4,1
		c-0.1,0.4-0.3,0.7-0.4,1.1c-2.8,2.8-5.7,5.8-8.6,9.1c-1.1,1.3-2.2,2.5-3.1,3.7l-11.7,1.1l-0.4,0v7.2l-15.4,1.5l5,11l-5,12.1
		l24.2-2.6v-7L163,148.3v7.4l24-2.6l-3.5-11.3l3.5-11.8l-15.3,1.5v-7.2l-3.6,0.3c0.2-0.6,0.3-1.2,0.5-1.8c1-3.9,1.5-7.4,1.4-10.1
		c0-0.9-0.1-1.7-0.2-2.4c2.4,0,4.6-0.5,6.9-1.6c2.1-1,4.1-2.5,6.4-4.4C182.9,105.3,182.9,106.3,183.1,107.2z M165.1,124.9l-4.2,0.4
		c0.9-2.8,2.1-6.1,3.6-9.9c0.4-1,0.8-1.9,1.1-2.8c0.3-0.7,0.5-1.3,0.8-1.9c0.8,1.8,0.7,6.2-0.8,12.4
		C165.4,123.7,165.3,124.3,165.1,124.9z M159.1,137.9c-0.2,0.1-0.3,0.2-0.4,0.2c-0.7-0.7-0.5-4.3,1.8-11.7l4.2-0.4
		C162.8,132.4,160.3,137.2,159.1,137.9z M181.9,84.6c0,0,0,0.1,0,0.2c-0.2,1.4-2.2,5.4-7.4,12.2c-1.3,1.7-2.8,3.5-4.2,5.2
		c3.4-6.9,6.7-12.6,9.2-15.5C181.2,84.8,181.9,84.6,181.9,84.6z M150,111.9c0.1-0.8,0.7-2.5,2.5-5.4l0,0c0.5-0.8,0.9-1.4,1.3-2
		l0.2-0.2c0.1-0.1,0.2-0.3,0.3-0.4c0,0,0,0,0-0.1c0.2,0.2,0.4,0.3,0.7,0.3c0.1,0,0.3,0,0.4,0C153.7,107.1,151.5,110.7,150,111.9z
		 M44.5,137.6c-3.8,8.2-8.1,15.5-11.5,17.6c-0.7,0.4-1.2,0.6-1.7,0.4l0,0c-0.3-0.1-0.4-0.2-0.4-0.3c-0.1-0.2-0.2-0.6,0-1.5
		c0.7-3.2,4.6-9.2,10.2-16L44.5,137.6z M41.9,136.9c1.8-2.1,3.7-4.2,5.7-6.4c-0.8,2-1.7,4.1-2.7,6.1L41.9,136.9z M51.7,113.4
		c0,0.2,0.1,0.3,0.2,0.4c0.1,0.1,0.3,0.3,0.7,0.4c-0.5,0.6-0.9,1.3-1.5,2.2c-1.3,1.9-3.5,5.2-4.8,6.2c0.1-0.7,0.6-2.3,2.3-5
		C49.8,115.4,50.9,114.1,51.7,113.4z M32.4,161l1.6,1.2v0.5l-2.2-1.7L32.4,161z M31,161.1l2.9,2.3v0.6l-3.6-2.8L31,161.1z
		 M29.6,161.2l4.3,3.4v0.6l-5-3.9L29.6,161.2z M28.2,161.4l5.7,4.4v0.5l-6.3-4.9L28.2,161.4z M16.9,158.2L12.3,148l13.9-1.4v14.9
		l0,0l0,0l6.9,5.4l-20.8,2.2L16.9,158.2z M33.9,161.5l-0.8-0.6l0.8-0.1V161.5z M164.7,148.1l-0.7,0.7v-0.6L164.7,148.1z M164,153.4
		l5.7-5.8l0.5,0l-6.2,6.4V153.4z M164,152.7v-0.6l4.3-4.3l0.7-0.1L164,152.7z M164,151.4v-0.6l2.9-2.9l0.6-0.1L164,151.4z
		 M164,150.1v-0.6l1.4-1.5l0.7-0.1L164,150.1z M185.7,131.1l-3.2,10.7l3.2,10.4l-20.9,2.3l6.9-7.1l0,0v-14.9L185.7,131.1z
		 M170.8,125.4v21.1l-143.6,14v-21.1l10.2-1c-5.5,6.9-9,12.5-9.7,15.9c-0.3,1.3-0.2,2.4,0.3,3.1c0.4,0.6,1,1,1.8,1.1
		c0.3,0.1,0.6,0.1,1,0.1c0.2,0,0.3,0,0.5,0c0.9-0.1,1.9-0.5,2.9-1.1c4.9-3,9.9-12.2,13.6-20.2l109.8-10.7c-1.8,6-3,11.9-1.3,13.6
		c0.4,0.4,1,0.6,1.6,0.6c0.1,0,0.2,0,0.3,0c0.6-0.1,1.3-0.3,2-0.7c3-1.7,5.9-8.1,7.8-14.5L170.8,125.4z"/>
</g>
</svg>
